<?xml version="1.0" encoding="UTF-8" standalone="no"?>
<!DOCTYPE svg PUBLIC "-//W3C//DTD SVG 1.1//EN" "http://www.w3.org/Graphics/SVG/1.1/DTD/svg11.dtd">
<svg width="100%" height="100%" viewBox="0 0 4967 4967" version="1.1" xmlns="http://www.w3.org/2000/svg" xmlns:xlink="http://www.w3.org/1999/xlink" xml:space="preserve" xmlns:serif="http://www.serif.com/" style="fill-rule:evenodd;clip-rule:evenodd;stroke-linejoin:round;stroke-miterlimit:2;">
    <g transform="matrix(10.0119,0,-5.55112e-17,10.0119,-16082.1,-8277.56)">
        <path d="M1967.82,1294.89C1956.8,1300.12 1938.1,1309.36 1913.67,1315.82C1885.73,1323.21 1864.85,1322.84 1854.33,1322.84C1717.44,1322.84 1606.3,1211.69 1606.3,1074.8C1606.3,937.911 1717.44,826.772 1854.33,826.772C1863.35,826.772 1872.26,827.254 1881.04,828.196L1856.45,877.752C1855.74,877.745 1855.04,877.741 1854.33,877.741C1745.57,877.741 1657.27,966.042 1657.27,1074.8C1657.27,1183.57 1745.57,1271.87 1854.33,1271.87C1858.69,1271.87 1863.03,1271.72 1867.32,1271.44C1859.38,1262.38 1849.44,1250.98 1836.99,1236.65C1779.66,1170.63 1810.91,1105.97 1821.07,1081.03C1842.73,1027.85 1934.36,839.988 1934.36,839.988C1942.8,842.866 1951.03,846.186 1959.03,849.92C1959.48,850.115 1959.93,850.324 1960.38,850.546C1960.47,850.593 1960.56,850.64 1960.66,850.688C1969.2,854.752 1977.47,859.29 1985.45,864.268C1985.45,864.268 1895.55,1046.02 1872.72,1102.07C1866.34,1117.73 1843.1,1158.63 1879.1,1200.09C1907.4,1232.67 1967.82,1294.89 1967.82,1294.89ZM2018.66,1260.53C2018.66,1260.53 1956.47,1208 1946.16,1198.57C1904.29,1160.25 1919.09,1110.66 1928.68,1087.35C1947.45,1041.72 2023.39,893.38 2023.39,893.38C2071.97,938.671 2102.36,1003.22 2102.36,1074.8C2102.36,1109.02 2095.42,1141.62 2082.87,1171.29L2041.22,1137.43C2047.82,1117.75 2051.39,1096.69 2051.39,1074.8C2051.39,1046.45 2045.39,1019.48 2034.59,995.106C2017.66,1027.99 1993.76,1075.74 1980.26,1108.57C1976.08,1118.71 1965.59,1140.75 1983.81,1157.43C1998.99,1171.31 2055.41,1219.98 2055.41,1219.98C2044.67,1234.81 2032.34,1248.41 2018.66,1260.53Z" style="fill:rgb(90,90,90);"/>
    </g>
</svg>
